PathFileType	4	(X/Y/Z)	./resultDataOpenSim/trcMotMarkerGrf/sub10/qtm-02-05.trc
DataRate	CameraRate	NumFrames	NumMarkers	Units	OrigDataRate	OrigDataStartFrame	OrigNumFrames
250.000000	250.000000	14	24	m	250.000000	131	523
Frame#	Time	L.Toe.Tip			R.Toe.Tip			L.Ankle.Lat			R.Ankle.Lat			L.Ankle.Med			R.Ankle.Med			L.Heel			R.Heel			L.Knee.Lat			R.Knee.Lat			L.Knee.Med			R.Knee.Med			L.Thigh.Upper			R.Thigh.Upper			L.ASIS			R.ASIS			V.Sacral			L.Acromium			R.Acromium			C7			L.Elbow			R.Elbow			L.Wrist.Lat			R.Wrist.Lat
		X1	Y1	Z1	X2	Y2	Z2	X3	Y3	Z3	X4	Y4	Z4	X5	Y5	Z5	X6	Y6	Z6	X7	Y7	Z7	X8	Y8	Z8	X9	Y9	Z9	X10	Y10	Z10	X11	Y11	Z11	X12	Y12	Z12	X13	Y13	Z13	X14	Y14	Z14	X15	Y15	Z15	X16	Y16	Z16	X17	Y17	Z17	X18	Y18	Z18	X19	Y19	Z19	X20	Y20	Z20	X21	Y21	Z21	X22	Y22	Z22	X23	Y23	Z23	X24	Y24	Z24

131	0.52	-0.42591385	0.055883911	-0.08286118	-0.71531256	0.040460596	0.085134474	-0.55640583	0.080492435	-0.070701865	-0.85736336	0.056221556	0.11664689	-0.5239148	0.1030037	0.0068495482	-0.83594267	0.082083677	0.03267672	-0.60568318	0.049677225	-0.0056058183	-0.90670916	0.032727716	0.066962329	-0.52245912	0.46759745	-0.1105929	-0.7392244	0.44407975	0.16288964	-0.48513302	0.44906902	0.0046825029	-0.73108261	0.44617681	0.029648055	-0.65264923	0.82967355	-0.16313817	-0.68551945	0.85409289	0.21760986	-0.61030189	0.94261062	-0.096110861	-0.60718345	0.94478218	0.14887599	-0.81366959	0.95118526	0.020293739	-0.68776304	1.4145063	-0.12065786	-0.66796463	1.4081451	0.20350071	-0.7636794	1.4380944	0.041922553	-0.79330006	1.0863148	-0.17982761	-0.64272618	1.0493547	0.2620312	-0.66407399	0.88030761	-0.20686611	-0.42140431	0.93603937	0.22687874
132	0.524	-0.40790864	0.056795196	-0.082527583	-0.71529981	0.040448059	0.085061161	-0.53908215	0.078188044	-0.070718536	-0.85729695	0.056297313	0.11653754	-0.50741772	0.10180158	0.0068474239	-0.83572752	0.082076472	0.03266506	-0.58774279	0.046439357	-0.0056848658	-0.90669811	0.032846032	0.066843241	-0.51655219	0.46625265	-0.11070915	-0.73810392	0.44375263	0.1629888	-0.47942526	0.44830966	0.004920767	-0.72880926	0.44575589	0.029447067	-0.64678639	0.82899827	-0.1633154	-0.68188112	0.85332014	0.21740677	-0.60444622	0.94182843	-0.095843186	-0.60288592	0.94382389	0.1491684	-0.80832401	0.95004246	0.019052663	-0.68306834	1.4136577	-0.12057735	-0.6627715	1.4073279	0.20351066	-0.75877565	1.4371859	0.042140256	-0.79055001	1.0860448	-0.17984452	-0.63446913	1.0486564	0.26191289	-0.66262508	0.87942691	-0.20793828	-0.41190197	0.9385918	0.22440312
133	0.528	-0.3899833	0.057859838	-0.08199273	-0.71527568	0.040416804	0.084989043	-0.52177361	0.076184648	-0.070778094	-0.85714382	0.056373996	0.11639533	-0.49106288	0.10087046	0.0068311235	-0.83548754	0.082062782	0.032626242	-0.56992612	0.043534375	-0.0058829462	-0.90668167	0.032964711	0.066713861	-0.51075783	0.46501944	-0.11106129	-0.73718616	0.44301385	0.16257373	-0.47388405	0.44740722	0.0050753502	-0.72646048	0.44529669	0.029219683	-0.64083231	0.82827138	-0.16349145	-0.67822371	0.85253712	0.2172208	-0.59861402	0.94097873	-0.095617814	-0.59858477	0.94284586	0.14945564	-0.80278794	0.94884985	0.017739694	-0.67835145	1.4127592	-0.12049454	-0.65755819	1.4064493	0.20349659	-0.75386201	1.436223	0.042344278	-0.78794053	1.0857284	-0.1801299	-0.62609628	1.0478956	0.26174286	-0.66114415	0.87849827	-0.2089898	-0.40249051	0.94111433	0.22193578
134	0.532	-0.37217501	0.059103568	-0.081233515	-0.715258	0.040366611	0.084920099	-0.50453939	0.074484655	-0.070917236	-0.8567385	0.056447533	0.11623208	-0.47488671	0.10019343	0.0067883078	-0.83524738	0.082039524	0.0325247	-0.55232169	0.040949227	-0.0062285172	-0.90666155	0.033086789	0.06658339	-0.50498718	0.46380932	-0.11159896	-0.7365406	0.4418014	0.16169613	-0.4685057	0.44635734	0.0051407944	-0.72402057	0.44478711	0.028967001	-0.63476824	0.82750491	-0.16365956	-0.67451386	0.85173601	0.21700983	-0.59272006	0.94006708	-0.09541283	-0.59423116	0.94185396	0.1496867	-0.79719018	0.94764227	0.016341774	-0.6736342	1.4118164	-0.1204159	-0.65234803	1.4055115	0.20346826	-0.74893967	1.435203	0.042536341	-0.78549551	1.0853766	-0.18068867	-0.61769134	1.0470757	0.2615362	-0.65953146	0.87753709	-0.20995033	-0.39317613	0.94360536	0.21947412
135	0.536	-0.35452874	0.060549301	-0.080259304	-0.71525755	0.040287304	0.084845478	-0.48743942	0.073056442	-0.071137681	-0.85604552	0.056500445	0.11606586	-0.45890953	0.099737801	0.0066914888	-0.83502687	0.082005883	0.03235498	-0.53499488	0.038729596	-0.0067287749	-0.90664326	0.033217261	0.066460196	-0.49915259	0.46247439	-0.11217015	-0.73568683	0.4403428	0.16072206	-0.46326848	0.44517089	0.005142103	-0.72147592	0.44422258	0.028702612	-0.62858688	0.82668774	-0.16381251	-0.67075507	0.85091165	0.21676158	-0.58671157	0.93909937	-0.095221926	-0.58974836	0.94084749	0.14978233	-0.79163138	0.94652443	0.014954646	-0.66891439	1.4108304	-0.12035126	-0.6471502	1.4045207	0.20343383	-0.74400854	1.4341248	0.042719468	-0.78309623	1.0849953	-0.18129204	-0.60942967	1.0462278	0.26131303	-0.65777339	0.87656181	-0.21081688	-0.38396106	0.9460618	0.21701688
136	0.54	-0.33710276	0.062223862	-0.079111961	-0.71526296	0.04017911	0.084777678	-0.47052325	0.071870255	-0.071418882	-0.85535041	0.056524168	0.11592617	-0.443151	0.099464301	0.0065119833	-0.83483666	0.081965738	0.032128107	-0.51790902	0.036973791	-0.0073273578	-0.90663188	0.033362198	0.066347722	-0.49320839	0.46093305	-0.11264972	-0.7336843	0.43898628	0.15997705	-0.45814588	0.44386396	0.0051088845	-0.71882637	0.44360212	0.028434927	-0.62230101	0.82579738	-0.16394279	-0.66696849	0.85006098	0.21648517	-0.5805788	0.93808397	-0.095040376	-0.5850708	0.93981402	0.14968202	-0.78612098	0.94550397	0.013615294	-0.66415804	1.4098003	-0.12030662	-0.64195297	1.4034844	0.20339591	-0.73907046	1.4329913	0.042895509	-0.78050015	1.0845783	-0.18160129	-0.60141805	1.0453873	0.26108213	-0.65594376	0.87557233	-0.21164677	-0.37484434	0.94847791	0.21456314
137	0.544	-0.31997203	0.064145671	-0.077857594	-0.71524516	0.04006915	0.084747969	-0.45386674	0.070943413	-0.071782449	-0.85511172	0.056538223	0.11585292	-0.4276504	0.099338767	0.0062385727	-0.83466962	0.081925321	0.031871423	-0.50101034	0.035710631	-0.0079724305	-0.90662815	0.033526301	0.066242304	-0.48716154	0.45922196	-0.11301982	-0.72990025	0.43794133	0.15954743	-0.45310845	0.44245217	0.0050594641	-0.71608385	0.44292201	0.028162157	-0.61596666	0.82481715	-0.16405145	-0.66316726	0.84918337	0.21619374	-0.57434633	0.93702835	-0.094849077	-0.58024698	0.93872144	0.14945426	-0.78057401	0.94444272	0.012263797	-0.65932716	1.4087213	-0.12027912	-0.6367365	1.4024039	0.20335332	-0.73412805	1.4318042	0.043065942	-0.77746941	1.0841248	-0.18135265	-0.59360629	1.0445698	0.26084559	-0.65411837	0.87455694	-0.21249173	-0.36582573	0.95084536	0.21211477
138	0.548	-0.30323009	0.066301077	-0.076582495	-0.71519227	0.039989106	0.084764123	-0.43756373	0.070289291	-0.072271882	-0.85547508	0.056573566	0.1158529	-0.41248089	0.099337515	0.0058766658	-0.83449853	0.08188941	0.031627402	-0.48437356	0.03477929	-0.0087252693	-0.90662784	0.033711345	0.066133202	-0.48106731	0.45743643	-0.11329808	-0.72473096	0.43724128	0.15933166	-0.44810049	0.44095116	0.0050144998	-0.713274	0.44217522	0.02789227	-0.60964486	0.82374828	-0.16415107	-0.65935203	0.84827861	0.21589458	-0.5680666	0.9359275	-0.094631515	-0.5754839	0.93753176	0.14932357	-0.77483347	0.94313747	0.010798843	-0.65442481	1.4075873	-0.12026395	-0.63149396	1.4012716	0.20330329	-0.72918175	1.4305631	0.043231708	-0.77395614	1.0836484	-0.18050731	-0.58586315	1.0437654	0.2606048	-0.65230916	0.87350507	-0.21335387	-0.35690867	0.95315614	0.2096742
139	0.552	-0.2869735	0.068654621	-0.075371203	-0.71512159	0.039943713	0.084798861	-0.42166357	0.069855054	-0.072885885	-0.85608582	0.05664774	0.11587981	-0.3977459	0.099440425	0.0054302448	-0.83429665	0.081860103	0.031424112	-0.46817185	0.033904097	-0.0097346535	-0.90662355	0.033916758	0.066008566	-0.4749832	0.45566047	-0.11347479	-0.71942849	0.43681321	0.15915422	-0.44303761	0.43937512	0.0050095042	-0.7104463	0.44135301	0.027656086	-0.60335722	0.82260484	-0.16426153	-0.65551835	0.847345	0.2155837	-0.56179197	0.93476366	-0.094388917	-0.570974	0.93624915	0.14946771	-0.7687385	0.94140733	0.0091467684	-0.6494899	1.4063963	-0.12025939	-0.62623931	1.4000751	0.20324301	-0.72422833	1.4292682	0.043390735	-0.77021434	1.0831556	-0.17936381	-0.57808966	1.0429489	0.26035725	-0.65047533	0.87241189	-0.21420496	-0.34809706	0.95540543	0.20724101
140	0.556	-0.27125834	0.071192306	-0.074262374	-0.7150535	0.039914326	0.084824867	-0.40617534	0.069563851	-0.073592539	-0.85650938	0.056761268	0.11588336	-0.38354372	0.099614395	0.0048932047	-0.83405733	0.081838003	0.031255014	-0.45252259	0.032932458	-0.011082528	-0.90660858	0.034140137	0.06586757	-0.46890773	0.45393964	-0.11354009	-0.71511388	0.43650854	0.15895474	-0.43785099	0.43773592	0.0050791539	-0.70765072	0.44045034	0.027482136	-0.59707858	0.82140389	-0.16440101	-0.65165979	0.84638284	0.21524575	-0.55553659	0.93352266	-0.094130962	-0.5666895	0.9349426	0.14981407	-0.76234945	0.93926077	0.0073951449	-0.64455362	1.4051523	-0.12026095	-0.62099472	1.3988083	0.20317185	-0.71926117	1.4279203	0.043537458	-0.76664685	1.0826299	-0.17842935	-0.57026011	1.0420969	0.26009566	-0.64858581	0.87128247	-0.21502765	-0.3393897	0.95759219	0.2048154
141	0.56	-0.25608193	0.073915718	-0.073240203	-0.71499192	0.039884078	0.084836981	-0.39111495	0.06938304	-0.07438121	-0.85663495	0.05690033	0.11585058	-0.36992129	0.099812025	0.0042645907	-0.83378939	0.08182346	0.031096562	-0.43743608	0.031938042	-0.012715389	-0.90658022	0.034378048	0.065723448	-0.46278505	0.45229081	-0.11351696	-0.71210704	0.43618859	0.15884331	-0.43253747	0.43604479	0.0052328495	-0.70486883	0.43947903	0.027359509	-0.59076635	0.82015444	-0.16456828	-0.64777064	0.84539492	0.2148674	-0.54927491	0.93220205	-0.093873917	-0.56245165	0.93368668	0.15015156	-0.75609101	0.93706909	0.0058159395	-0.63962144	1.4038665	-0.12026072	-0.61577465	1.3974793	0.20309314	-0.71427531	1.4265205	0.043666427	-0.76346785	1.0820474	-0.17803099	-0.5623916	1.0411945	0.25980872	-0.64665888	0.87012831	-0.21582605	-0.33077836	0.95971961	0.20240017
142	0.564	-0.24143307	0.076775003	-0.072275229	-0.71493072	0.039849117	0.084842348	-0.37651177	0.069324997	-0.075265995	-0.85659162	0.057044051	0.11579185	-0.35685935	0.099998548	0.0035738089	-0.8335012	0.081817245	0.030932618	-0.42287599	0.031050922	-0.014550268	-0.90653996	0.034628407	0.065587343	-0.456549	0.45072527	-0.11345362	-0.7101097	0.43581822	0.15892774	-0.42715776	0.43431382	0.0054553963	-0.70200444	0.43847118	0.027243276	-0.58441493	0.8188432	-0.16473628	-0.64385063	0.84438154	0.21444967	-0.54297337	0.93080306	-0.09365537	-0.55814322	0.9324949	0.15037128	-0.75044684	0.93538318	0.0045864155	-0.6346858	1.4025521	-0.12025978	-0.61057784	1.3961017	0.203011	-0.70927369	1.4250731	0.043775572	-0.76056673	1.0814012	-0.17809395	-0.55449776	1.0402302	0.25947816	-0.64474254	0.8689555	-0.21661292	-0.32225393	0.96179604	0.19999723
143	0.568	-0.2273407	0.079652373	-0.071343902	-0.71486535	0.039813012	0.084846971	-0.36239971	0.069415644	-0.076257003	-0.85649349	0.057180094	0.11571298	-0.34431553	0.10016747	0.0028835111	-0.83318967	0.081821869	0.030759516	-0.40879764	0.030248524	-0.016594256	-0.90649187	0.034891744	0.065453085	-0.45014238	0.44926376	-0.1133986	-0.70863138	0.43542975	0.15919518	-0.42178114	0.43255689	0.0057286085	-0.69898178	0.43745695	0.027096916	-0.57806376	0.81743871	-0.1648734	-0.63990568	0.84334293	0.2140045	-0.53661526	0.92933598	-0.093531161	-0.55376028	0.93133219	0.15049778	-0.74548576	0.93445087	0.0036099477	-0.62973997	1.4012134	-0.12027047	-0.60538727	1.3946805	0.20292446	-0.70426834	1.4235898	0.043866626	-0.75768908	1.0807088	-0.17828463	-0.54658691	1.0391994	0.25909254	-0.64287521	0.86775872	-0.21739965	-0.31382094	0.96382861	0.19760901
144	0.572	-0.21386199	0.082431097	-0.07041672	-0.71479607	0.039778781	0.08485291	-0.34882054	0.069658384	-0.077342957	-0.85635042	0.057308921	0.11560075	-0.33230239	0.10030953	0.0022495184	-0.83283892	0.081842187	0.030579688	-0.39514705	0.029368053	-0.018920846	-0.90644067	0.035170958	0.065303197	-0.44353256	0.4479308	-0.11337686	-0.70723725	0.43502235	0.15953533	-0.41643796	0.43079264	0.006044008	-0.69581252	0.43644234	0.026913219	-0.57173944	0.81591736	-0.16496655	-0.63594183	0.84228435	0.21354756	-0.53020044	0.92783573	-0.093558407	-0.54933322	0.93016198	0.15058001	-0.74080612	0.93398577	0.0026972495	-0.62478535	1.3998419	-0.12029944	-0.60018445	1.3932117	0.20282883	-0.69927356	1.4220905	0.043943574	-0.75465494	1.0799923	-0.17828164	-0.53868834	1.038115	0.25866736	-0.64107643	0.86652635	-0.2181914	-0.30550364	0.96581031	0.19524342
